<svg width="20" height="20" viewBox="0 0 20 20" fill="none" xmlns="http://www.w3.org/2000/svg">
<path d="M19 6.82156C19 7.06913 19 7.3167 19 7.56427C18.9908 7.61564 18.9771 7.66613 18.9732 7.71795C18.905 8.58379 18.6318 9.38408 18.212 10.1379C17.6832 11.0874 16.985 11.9036 16.2212 12.6627C14.3698 14.5029 12.3328 16.1327 10.3754 17.8529C10.1431 18.0571 9.86552 18.0442 9.62398 17.8423C9.4216 17.6726 9.22274 17.499 9.02431 17.3245C7.45101 15.9405 5.86363 14.5725 4.31101 13.1654C3.34793 12.2929 2.46757 11.3328 1.83095 10.1822C0.760959 8.24941 0.703767 6.28655 1.77903 4.34185C2.37474 3.26387 3.2947 2.54064 4.48127 2.20272C5.74704 1.84222 6.96046 1.97198 8.0894 2.68503C8.80785 3.13854 9.35517 3.76079 9.80305 4.47782C9.86904 4.58367 9.93372 4.6904 9.98167 4.76835C10.3218 4.32679 10.6196 3.86177 10.9927 3.46981C12.3082 2.0889 13.9066 1.66684 15.7069 2.26384C17.4016 2.82586 18.3845 4.08719 18.8223 5.79849C18.9081 6.13287 18.9419 6.48054 19 6.82156Z" stroke="#E44B55"/>
</svg>
