<svg width="155" height="18" viewBox="0 0 155 18" fill="none" xmlns="http://www.w3.org/2000/svg">
<path fill-rule="evenodd" clip-rule="evenodd" d="M-0.000152612 1.50516L6.22719 1.50516L6.22719 6.68153L13.3885 6.68153L13.3885 1.50516L19.6155 1.50516L19.6155 16.4894L13.3885 16.4894L13.3885 11.3133L6.22719 11.3133L6.22719 16.4894L-0.000153267 16.4894L-0.000152612 1.50516ZM50.2438 11.988L60.9862 11.988L60.9862 7.57269L50.2438 7.57269L50.2438 5.92039L60.9862 5.92039L60.9862 1.50516L44.0163 1.50516C44.0163 6.50002 44.0163 11.4948 44.0163 16.4894L50.2438 16.4894L50.2438 11.988ZM141.056 7.99379L147.39 16.4894C149.807 16.4894 152.583 16.4894 155 16.4894L155 1.50517L148.772 1.50517L148.772 10.0009L142.438 1.50517C140.022 1.50517 137.245 1.50517 134.829 1.50517L134.829 16.4894L141.056 16.4894L141.056 7.99379ZM21.3074 8.81501C21.3074 4.24827 24.5705 0.956623 31.7968 0.962894C39.0228 0.956624 42.3245 4.43336 42.3245 8.99997C42.3245 13.5664 39.0228 17.0433 31.7968 17.037C24.5705 17.0433 21.3074 13.3816 21.3074 8.81501ZM35.5888 7.63735C34.2504 4.80106 29.3506 4.79883 28.0074 7.63148C27.5644 8.56532 27.5616 9.41473 27.9987 10.3499C29.3296 13.2017 34.2503 13.2049 35.5899 10.3602C36.0305 9.4241 36.0305 8.57294 35.5888 7.63735ZM118.896 7.99379L125.231 16.4894C127.647 16.4894 130.423 16.4894 132.84 16.4894L132.84 1.50517L126.612 1.50517L126.612 10.0009L120.278 1.50517C117.862 1.50517 115.085 1.50517 112.669 1.50517L112.669 16.4894L118.896 16.4894L118.896 7.99379ZM97.9701 10.6133L102.241 10.6133L100.105 6.23987L97.9701 10.6133ZM104.179 14.5832L96.0316 14.5832L95.1008 16.4894L88.8808 16.4894L96.1976 1.50517C98.8027 1.50517 101.408 1.50517 104.013 1.50517L111.33 16.4894L105.11 16.4894L104.179 14.5832ZM77.8903 1.50517L75.2722 9.0523L72.6543 1.50516C69.557 1.50516 66.0992 1.50516 63.002 1.50516L63.002 16.4894L69.2293 16.4894L69.2293 6.00023L72.8677 16.4894L77.6766 16.4894L81.3153 6.00023L81.3153 16.4894L87.5424 16.4894L87.5424 1.50517C84.4451 1.50517 80.9872 1.50517 77.8903 1.50517Z" fill="#666666"/>
</svg>
