<svg width="210" height="20" viewBox="0 0 210 20" fill="none" xmlns="http://www.w3.org/2000/svg">
<path fill-rule="evenodd" clip-rule="evenodd" d="M-2.9493e-08 0.674713L8.43707 0.674713L8.43707 7.11535L18.1395 7.11535L18.1395 0.674714L26.5761 0.674714L26.5761 19.3186L18.1395 19.3186L18.1395 12.8783L8.43707 12.8783L8.43707 19.3186L-8.44445e-07 19.3186L-2.9493e-08 0.674713ZM68.0726 13.7178L82.6269 13.7178L82.6269 8.22416L68.0726 8.22416L68.0726 6.16831L82.6269 6.16831L82.6269 0.674717L59.6354 0.674716C59.6354 6.8895 59.6354 13.1042 59.6354 19.3186L68.0726 19.3186L68.0726 13.7178ZM191.109 8.74811L199.691 19.3186C202.965 19.3186 206.727 19.3186 210 19.3186L210 0.674722L201.563 0.674722L201.563 11.2454L192.981 0.674722C189.707 0.674721 185.945 0.674721 182.672 0.674721L182.672 19.3186L191.109 19.3186L191.109 8.74811ZM28.8683 9.7699C28.8683 4.08779 33.2894 -0.00779916 43.0798 3.83322e-06C52.8699 -0.0077983 57.3432 4.31809 57.3432 10C57.3432 15.6818 52.8699 20.0078 43.0798 20C33.2894 20.0078 28.8683 15.4518 28.8683 9.7699ZM48.2175 8.30461C46.404 4.77559 39.7657 4.77282 37.9458 8.29731C37.3456 9.45922 37.3418 10.5161 37.934 11.6797C39.7372 15.228 46.4039 15.2319 48.2188 11.6924C48.8158 10.5278 48.8158 9.4687 48.2175 8.30461ZM161.086 8.74811L169.668 19.3186C172.941 19.3186 176.703 19.3186 179.977 19.3186L179.977 0.674721L171.54 0.674721L171.54 11.2454L162.958 0.67472C159.684 0.67472 155.923 0.67472 152.648 0.67472L152.648 19.3186L161.086 19.3186L161.086 8.74811ZM132.734 12.0074L138.521 12.0074L135.627 6.56582L132.734 12.0074ZM141.147 16.9469L130.108 16.9469L128.847 19.3186L120.42 19.3186L130.333 0.674719C133.862 0.674719 137.392 0.674719 140.922 0.674719L150.835 19.3186L142.408 19.3186L141.147 16.9469ZM105.529 0.674718L101.982 10.0651L98.4352 0.674717C94.2389 0.674717 89.5542 0.674717 85.3579 0.674717L85.3579 19.3186L93.795 19.3186L93.795 6.26764L98.7245 19.3186L105.24 19.3186L110.17 6.26764L110.17 19.3186L118.606 19.3186L118.606 0.674718C114.41 0.674718 109.725 0.674718 105.529 0.674718Z" fill="#EFEFEF"/>
</svg>
